<svg id="SvgjsSvg1001" width="288" height="288" xmlns="http://www.w3.org/2000/svg" version="1.1" xmlns:xlink="http://www.w3.org/1999/xlink" xmlns:svgjs="http://svgjs.com/svgjs"><defs id="SvgjsDefs1002"></defs><g id="SvgjsG1008"><svg xmlns="http://www.w3.org/2000/svg" version="1.0" viewBox="0 0 500 500" width="288" height="288"><g transform="matrix(.1 0 0 -.1 0 500)" fill="#ffffff" class="color000 svgShape"><path d="M2410 2565l0-615 65 0 65 0 0 185c0 110 4 185 10 185 5 0 59-69 120-152 61-84 127-165 148-179 65-47 148-60 224-37 48 14 54 26 38 73-11 34-13 35-48 29-21-4-39-6-42-6-84 0-110 21-214 170-40 59-86 120-102 136l-29 28 198 194 199 194-78 0-79 0-172-172-173-173 0 378 0 377-65 0-65 0 0-615zM480 2540l0-590 334 0c372 0 346-5 346 71l0 39-275 0-275 0 0 535 0 535-65 0-65 0 0-590zM1486 2868c-25-113-49-575-36-685 22-195 128-316 305-346 166-28 327 51 399 198 44 90 52 182 38 422-7 115-17 259-23 321l-12 112-333 0-334 0-4-22zm654-1c0-7 7-91 15-187 9-96 17-249 18-340 2-153 0-169-21-215-31-68-82-118-156-152-56-26-71-28-176-28-110 0-118 1-182 33-134 66-173 145-171 348 1 121 29 513 38 542 6 18 635 18 635-1zM3435 2776c-142-45-240-158-275-317-19-85-9-250 20-324 30-77 106-155 174-178 56-19 152-22 208-7 57 16 129 71 171 130l37 53 0-91 0-92 60 0 60 0 0 415 0 415-44 0c-41 0-44-2-50-31-3-17-6-42-6-55 0-13-2-24-5-24-2 0-24 20-48 43-26 27-63 50-92 60-57 20-153 21-210 3zm210-115c80-36 125-124 125-246 0-115-39-221-107-289-50-51-106-76-171-76-69 0-110 18-154 69-46 54-63 115-62 221 0 156 54 263 156 314 64 32 152 35 213 7zM4315 2777c-65-22-99-43-137-85-46-51-61-99-56-178 7-114 69-163 261-209 167-39 207-66 207-137 0-87-75-133-207-127-102 5-150 29-180 90-12 24-24 51-27 61-4 14-10 15-53 4-46-12-48-14-45-46 7-81 87-166 184-195 29-8 88-15 133-15 189 0 302 81 312 223 9 129-47 180-262 236-174 45-205 68-205 153 0 90 86 148 200 135 67-8 105-32 132-84 25-47 26-48 81-32 42 11 45 24 18 77-45 89-123 134-241 139-44 2-91-3-115-10zM1762 1789l23-31 3-480c3-480 3-481-19-504-38-41-84-55-207-63-86-6-19-8 258-8 281 0 345 2 256 8-106 7-124 11-165 36l-46 29-3 493c-2 485-2 493 19 522l20 29-81 0-81 0 23-31z" fill="#ffffff" class="color000 svgShape"></path></g></svg></g></svg>